<svg xmlns="http://www.w3.org/2000/svg" xmlns:svg="http://www.w3.org/2000/svg" id="svg1" width="16" height="16" version="1.1" viewBox="0 0 16 16"><metadata id="metadata20"/><g id="star_angled" style="display:inline;opacity:.2" transform="translate(-1296,-562)"><rect id="rect11798" width="16" height="16" style="display:inline;opacity:1;fill:none;fill-opacity:1;fill-rule:nonzero;stroke:none;stroke-width:1;stroke-linecap:butt;stroke-linejoin:miter;stroke-miterlimit:1.5;stroke-dasharray:none;stroke-dashoffset:0;stroke-opacity:1" x="1296" y="562"/><path id="path8412" d="m 109.11231,194.24583 -3.48759,2.20705 -0.0186,4.12722 -3.17675,-2.63488 -3.930991,1.25764 1.524251,-3.83549 -2.410831,-3.34996 4.118791,0.26442 2.44101,-3.32803 1.0213,3.99891 z" style="display:inline;overflow:visible;visibility:visible;fill:#babdb6;fill-opacity:1;fill-rule:evenodd;stroke:#555753;stroke-width:.78099883;stroke-linecap:butt;stroke-linejoin:round;stroke-miterlimit:4;stroke-dasharray:none;stroke-dashoffset:0;stroke-opacity:1;marker:none;marker-start:none;marker-mid:none;marker-end:none;enable-background:accumulate" transform="matrix(1.281336,-0.0360118,0.0342919,1.278526,1164.898,324.7687)"/><path id="path8414" d="m 108.97917,194.25051 -3.43374,2.00094 0.015,4.20347 -2.96409,-2.64736 -3.99309,1.31326 1.60183,-3.6371 -2.482907,-3.39184 3.954077,0.39951 2.45857,-3.40952 0.84192,3.884 z" style="display:inline;overflow:visible;visibility:visible;fill:none;fill-opacity:1;fill-rule:evenodd;stroke:#eeeeec;stroke-width:1.02712524;stroke-linecap:butt;stroke-linejoin:miter;stroke-miterlimit:4;stroke-dasharray:none;stroke-dashoffset:0;stroke-opacity:1;marker:none;marker-start:none;marker-mid:none;marker-end:none;enable-background:accumulate" transform="matrix(0.9659898,-0.0226454,0.0246692,0.9806753,1199.236,381.5034)"/></g></svg>